<?xml version="1.0" encoding="UTF-8" standalone="no"?>
<svg version="1.1" baseProfile="full" xmlns="http://www.w3.org/2000/svg" xmlns:xlink="http://www.w3.org/1999/xlink" xmlns:ev="http://www.w3.org/2001/xml-events" height="2000px" width="400px">
    <g>
        <rect x="0" y="0" width="400" height="200" fill="#00788c" stroke="none"/>
        <rect width="400" height="100" y="50" fill="#ffc828"/>
        <polygon points="0,0 150,100 0,200"/>
    </g>
    <g>
        <rect x="0" y="300" width="400" height="200" fill="#fed204" stroke="none"/>
        <polygon points="0,320 170,400 0,480"/>
        <polygon points="20,300 380,300 200,380" fill="#009c37"/>
        <polygon points="400,320 230,400 400,480"/>
        <polygon points="20,500 380,500 200,420" fill="#009c37"/>
    </g>
    <g>
        <rect x="0" y="600" width="400" height="200" fill="#d91b21" stroke="none"/>
        <polygon points="180,600 220,600 200,700" fill="#f9ea2b"/>
        <polygon points="350,600 400,600 200,700" fill="#f9ea2b"/>
        <polygon points="400,680 400,720 200,700" fill="#f9ea2b"/>
        <polygon points="350,800 400,800 200,700" fill="#f9ea2b"/>
        <polygon points="180,800 220,800 200,700" fill="#f9ea2b"/>
        <polygon points="0,800 50,800 200,700" fill="#f9ea2b"/>
        <polygon points="0,680 0,720 200,700" fill="#f9ea2b"/>
        <polygon points="50,600 000,600 200,700" fill="#f9ea2b"/>
        <circle cx="200" cy="700" r="30" fill="#d91b21"/>
        <circle cx="200" cy="700" r="25" fill="#f9ea2b"/>
    </g>
    <g>
        <rect x="0" y="900" width="400" height="200" fill="#ffffff" stroke="none"/>
        <path d="M150 980
        a 10 10 0 0 0 50 20
        a 10 10 0 0 1 50 20
        a 10 10 0 0 0 -100 -40
        z
        " stroke="none" fill="#ce2a38" stroke-width="1"/>
        <path d="M250 1020
        a 10 10 0 0 0 -50 -20
        a 10 10 0 0 1 -50 -20
        a 10 10 0 0 0 100 40
        z
        " stroke="none" fill="#0045a2" stroke-width="1"/>
        <g transform="rotate(-45, 55, 952.5)">
            <rect width="50" height="5" x="30" y="940"/>
            <rect width="50" height="5" x="30" y="950"/>
            <rect width="50" height="5" x="30" y="960"/>
        </g>
        <g transform="rotate(45, 345, 952.5)">
            <rect width="22.5" height="5" x="320" y="940"/>
            <rect width="22.5" height="5" x="347.5" y="940"/>
            <rect width="50" height="5" x="320" y="950"/>
            <rect width="22.5" height="5" x="320" y="960"/>
            <rect width="22.5" height="5" x="347.5" y="960"/>
        </g>
        <g transform="rotate(-45, 345, 1052.5)">
            <rect width="22.5" height="5" x="320" y="1040"/>
            <rect width="22.5" height="5" x="347.5" y="1040"/>
            <rect width="22.5" height="5" x="320" y="1050"/>
            <rect width="22.5" height="5" x="347.5" y="1050"/>
            <rect width="22.5" height="5" x="320" y="1060"/>
            <rect width="22.5" height="5" x="347.5" y="1060"/>
        </g>
        <g transform="rotate(45, 55, 1052.5)">
            <rect width="22.5" height="5" x="30" y="1040"/>
            <rect width="22.5" height="5" x="57.5" y="1040"/>
            <rect width="50" height="5" x="30" y="1050"/>
            <rect width="22.5" height="5" x="30" y="1060"/>
            <rect width="22.5" height="5" x="57.5" y="1060"/>
        </g>
    </g>
</svg>
